<svg width="63" height="64" viewBox="0 0 63 64" fill="none" xmlns="http://www.w3.org/2000/svg">
<path d="M37.9443 0.5H25.0557C11.2178 0.5 0 11.7178 0 25.5557V38.4443C0 52.2822 11.2178 63.5 25.0557 63.5H37.9443C51.7822 63.5 63 52.2822 63 38.4443V25.5557C63 11.7178 51.7822 0.5 37.9443 0.5Z" fill="url(#paint0_linear)"/>
<path d="M24.972 4.6773H38.0277C49.5123 4.6773 58.8225 13.9875 58.8225 25.4721V38.5278C58.8225 50.0124 49.5123 59.3226 38.0277 59.3226H24.972C13.4873 59.3226 4.17718 50.0125 4.17718 38.5278V25.4721C4.17718 13.9875 13.4873 4.6773 24.972 4.6773Z" stroke="#E08026" stroke-width="2.25793" stroke-miterlimit="10"/>
<path d="M34.5505 41.5383C34.5505 42.0338 34.4672 42.4668 34.3005 42.8373C34.1337 43.2054 33.8976 43.4867 33.5919 43.6812C33.2863 43.8757 32.9297 43.973 32.5222 43.973C32.124 43.973 31.7709 43.8757 31.4629 43.6812C31.155 43.4844 30.9153 43.2054 30.744 42.8442C30.575 42.4807 30.4882 42.0605 30.4835 41.5835V41.2188C30.4835 40.7326 30.568 40.3031 30.7371 39.9303C30.9061 39.5575 31.1446 39.2727 31.4525 39.0759C31.7628 38.8768 32.117 38.7772 32.5153 38.7772C32.9205 38.7772 33.277 38.8756 33.585 39.0724C33.8953 39.2669 34.1337 39.5506 34.3005 39.9233C34.4672 40.2938 34.5505 40.7256 34.5505 41.2188V41.5383ZM33.8872 41.2119C33.8872 40.6122 33.7668 40.1526 33.526 39.833C33.2852 39.5112 32.9483 39.3503 32.5153 39.3503C32.0939 39.3503 31.7616 39.5112 31.5185 39.833C31.2777 40.1526 31.1538 40.5971 31.1469 41.1667V41.5383C31.1469 42.1195 31.2684 42.5768 31.5116 42.9102C31.757 43.2413 32.0939 43.4069 32.5222 43.4069C32.9529 43.4069 33.2863 43.2506 33.5225 42.938C33.7587 42.6231 33.8802 42.1728 33.8872 41.587V41.2119Z" fill="#BCBEC0"/>
<path d="M37.2665 40.7222C37.1692 40.7059 37.0639 40.6978 36.9504 40.6978C36.529 40.6978 36.2431 40.8773 36.0926 41.2362V43.9035H35.45V40.1456H36.0752L36.0856 40.5798C36.2963 40.244 36.595 40.0762 36.9817 40.0762C37.1067 40.0762 37.2016 40.0924 37.2665 40.1248V40.7222Z" fill="#BCBEC0"/>
<path d="M40.0415 43.9035C40.0044 43.8294 39.9743 43.6974 39.9512 43.5076C39.6525 43.8178 39.2959 43.973 38.8815 43.973C38.511 43.973 38.2065 43.8688 37.968 43.6604C37.7319 43.4497 37.6138 43.1834 37.6138 42.8616C37.6138 42.4703 37.762 42.167 38.0583 41.9516C38.357 41.734 38.7761 41.6252 39.3156 41.6252H39.9408V41.3299C39.9408 41.1054 39.8736 40.9271 39.7393 40.7951C39.605 40.6608 39.4071 40.5937 39.1454 40.5937C38.9162 40.5937 38.724 40.6515 38.5689 40.7673C38.4138 40.8831 38.3362 41.0232 38.3362 41.1876H37.6902C37.6902 41 37.7562 40.8194 37.8882 40.6457C38.0225 40.4698 38.2031 40.3309 38.43 40.229C38.6592 40.1271 38.9104 40.0762 39.1836 40.0762C39.6166 40.0762 39.9558 40.185 40.2012 40.4026C40.4467 40.618 40.574 40.9155 40.5833 41.2952V43.0248C40.5833 43.3698 40.6273 43.6442 40.7153 43.8479V43.9035H40.0415ZM38.9752 43.4138C39.1767 43.4138 39.3677 43.3617 39.5483 43.2575C39.7289 43.1533 39.8597 43.0179 39.9408 42.8512V42.0801H39.4372C38.6499 42.0801 38.2563 42.3105 38.2563 42.7713C38.2563 42.9727 38.3235 43.1302 38.4577 43.2436C38.592 43.3571 38.7645 43.4138 38.9752 43.4138Z" fill="#BCBEC0"/>
<path d="M42.1983 40.1456L42.2191 40.618C42.5062 40.2568 42.8813 40.0762 43.3444 40.0762C44.1386 40.0762 44.5391 40.5242 44.5461 41.4203V43.9035H43.9036V41.4168C43.9012 41.1459 43.8387 40.9456 43.716 40.8159C43.5956 40.6863 43.4069 40.6214 43.1499 40.6214C42.9415 40.6214 42.7586 40.677 42.6012 40.7881C42.4437 40.8993 42.321 41.0452 42.233 41.2258V43.9035H41.5905V40.1456H42.1983Z" fill="#BCBEC0"/>
<path d="M45.3623 41.9933C45.3623 41.4075 45.4977 40.9421 45.7686 40.5971C46.0395 40.2498 46.3984 40.0762 46.8453 40.0762C47.3037 40.0762 47.6615 40.2382 47.9185 40.5624L47.9497 40.1456H48.5367V43.8132C48.5367 44.2994 48.392 44.6826 48.1025 44.9628C47.8154 45.243 47.4288 45.3831 46.9425 45.3831C46.6716 45.3831 46.4065 45.3252 46.1472 45.2094C45.8879 45.0936 45.6899 44.935 45.5533 44.7336L45.8867 44.3481C46.1622 44.6884 46.4991 44.8586 46.8974 44.8586C47.21 44.8586 47.4531 44.7706 47.6267 44.5947C47.8027 44.4187 47.8907 44.1709 47.8907 43.8514V43.5284C47.6337 43.8248 47.2829 43.973 46.8383 43.973C46.3984 43.973 46.0418 43.7959 45.7686 43.4416C45.4977 43.0873 45.3623 42.6046 45.3623 41.9933ZM46.0083 42.0662C46.0083 42.49 46.0951 42.8234 46.2687 43.0665C46.4424 43.3073 46.6855 43.4277 46.9981 43.4277C47.4033 43.4277 47.7008 43.2436 47.8907 42.8755V41.1598C47.6939 40.8009 47.3987 40.6214 47.005 40.6214C46.6925 40.6214 46.4482 40.743 46.2722 40.9861C46.0962 41.2292 46.0083 41.5893 46.0083 42.0662Z" fill="#BCBEC0"/>
<path d="M51.0686 43.973C50.5592 43.973 50.1447 43.8063 49.8252 43.4729C49.5057 43.1371 49.3459 42.6891 49.3459 42.1288V42.0107C49.3459 41.6379 49.4165 41.3056 49.5578 41.0139C49.7013 40.7198 49.9004 40.4906 50.1551 40.3262C50.4121 40.1595 50.69 40.0762 50.9887 40.0762C51.4772 40.0762 51.857 40.2371 52.1279 40.5589C52.3988 40.8808 52.5342 41.3415 52.5342 41.9412V42.2086H49.9884C49.9977 42.5791 50.1054 42.879 50.3114 43.1082C50.5198 43.3351 50.7838 43.4485 51.1033 43.4485C51.3302 43.4485 51.5224 43.4022 51.6798 43.3096C51.8373 43.217 51.975 43.0943 52.0931 42.9415L52.4856 43.2471C52.1707 43.731 51.6983 43.973 51.0686 43.973ZM50.9887 40.6041C50.7294 40.6041 50.5117 40.699 50.3357 40.8889C50.1598 41.0764 50.0509 41.3404 50.0093 41.6807H51.8917V41.6321C51.8732 41.3056 51.7852 41.0533 51.6277 40.875C51.4703 40.6944 51.2573 40.6041 50.9887 40.6041Z" fill="#BCBEC0"/>
<path d="M28.7043 39.8041H10.161V43.6753H28.7043V39.8041Z" fill="#E08026"/>
<path d="M38.1357 26.1565C36.8109 26.1565 35.671 26.1636 34.533 26.1458C34.4192 26.1441 34.2538 26.0249 34.2005 25.9182C33.4927 24.4494 31.9208 23.8199 30.3488 24.1027C29.0934 24.3285 28.0353 25.479 27.7846 26.9549C27.5446 28.3633 27.5979 29.7414 28.4852 30.9559C29.8634 32.8444 33.0339 32.599 34.1062 30.5132C34.2591 30.2144 34.4245 30.1077 34.7624 30.1166C35.8293 30.1415 36.8962 30.1255 37.9703 30.1255C37.5506 32.7146 35.3776 34.9018 32.8294 35.3268C31.35 35.574 29.8883 35.5562 28.4603 35.0245C26.4136 34.2634 25.1173 32.8017 24.4967 30.7426C23.8601 28.6318 23.9365 26.5317 24.8932 24.5312C26.0028 22.2089 27.9286 21.021 30.4644 20.8378C33.1495 20.644 35.4594 21.4051 37.0065 23.7488C37.4653 24.4423 37.7267 25.2656 38.1357 26.1565Z" fill="#BCBEC0"/>
<path d="M41.2415 31.0519C42.4934 31.0519 43.7114 31.0519 44.9562 31.0519C45.0718 31.8165 45.3972 32.4158 46.1654 32.6772C46.9656 32.9474 47.8316 32.6576 48.1054 32.0228C48.4273 31.2759 48.1659 30.5077 47.3266 30.1183C46.2667 29.6257 45.1589 29.2381 44.0724 28.7988C43.1086 28.4094 42.2337 27.8955 41.7092 26.9548C40.6618 25.077 41.1063 22.2034 43.7168 21.1969C45.4665 20.523 47.2465 20.5497 48.9963 21.2307C50.5327 21.8282 51.5765 23.3006 51.6797 25.0166C51.0591 25.0166 50.4385 25.0166 49.8196 25.0166C49.2079 25.0166 48.5962 25.0166 47.9738 25.0166C47.8903 24.7801 47.8298 24.5524 47.732 24.3426C47.3781 23.5904 46.4712 23.249 45.703 23.5673C44.8068 23.9407 44.5917 25.061 45.383 25.6745C45.9324 26.0995 46.6224 26.3538 47.2697 26.6419C48.1054 27.0135 48.9874 27.2874 49.8036 27.6981C51.2813 28.4396 51.9997 29.7004 51.9642 31.3399C51.9286 32.951 51.1658 34.1531 49.7236 34.9017C47.7516 35.926 44.1738 35.6752 42.4756 33.8988C41.7109 33.0986 41.3446 32.1579 41.2415 31.0519Z" fill="#BCBEC0"/>
<path d="M13.6179 30.2339C13.6179 32.0174 13.6179 33.6481 13.6179 35.316C12.462 35.316 11.3311 35.316 10.161 35.316C10.161 30.5664 10.161 25.7919 10.161 21.0013C10.1699 20.9942 10.1948 20.9551 10.2215 20.9551C12.3998 20.9746 14.5817 20.9337 16.7564 21.0387C18.9277 21.1436 20.4712 22.4363 20.9015 24.4724C21.563 27.6003 19.7225 30.008 16.6782 30.2232C15.6806 30.2925 14.6741 30.2339 13.6179 30.2339ZM13.6374 23.7362C13.6374 25.0343 13.6374 26.2506 13.6374 27.4492C14.4714 27.4492 15.3072 27.5238 16.1216 27.4296C16.993 27.3282 17.4535 26.6632 17.4784 25.7296C17.5051 24.7071 17.1032 24.0439 16.1839 23.8909C15.3588 23.7504 14.5052 23.7807 13.6374 23.7362Z" fill="#BCBEC0"/>
<defs>
<linearGradient id="paint0_linear" x1="41.3895" y1="53.2442" x2="31.5" y2="5.99419" gradientUnits="userSpaceOnUse">
<stop stop-color="#222322"/>
<stop offset="1" stop-color="#454745"/>
</linearGradient>
</defs>
</svg>
